<?xml version="1.0" standalone="no"?>
<svg viewBox="-305 -150 1500 1500" style="width: 487.5px; height: 487.5px; justify-content: center; align-self: center; transform: scale(1, 1);" xmlns="http://www.w3.org/2000/svg"><rect x="-305" y="-150" width="100%" height="100%" fill="#ffffff" rx="30"></rect><g transform="rotate(360 519.7948112487793 585.2494502663612)"><g id="body_Macbook" data-name="body/Macbook" transform="translate(0 459)"><path id="_Skin" data-name="âœ‹ Skin" d="M971.081,233.472l-42.838,4.2c-68.388,5.225-136.749,16.137-204.613,22.686-1.69-2.75-5-2.3-7.005-.386-6.772-.593-14.361-5.769-20.5-.385-.2-.028-.4-.061-.6-.08-10.922-20.963-18.472-43.322-25.8-65.711-4.677-13.765-10.969-27.09-22.6-36.332-19.844-13.775-65.312-41.708-88.613-40.534A17.3,17.3,0,0,0,553,105.684c7.038-12-21.1-19.828-23.088-18.437,1.272-40.088-17.585-74.9-59.165-82.885C433.492-3.4,380.509-4.7,360.475,34.225c-2.2-.248-24.713-.365-26.892-.121-3.386-4.289-40.576,36.353-25.334,50.5C171.978,144.888,94.493,137.7,56.775,307.164c-5.1,15.92-5.471,33.341-10.855,48.906C26.763,400.8,11.226,448.432,7.359,497.1c-9.339,2.393-10.414,18.86.4,21.242,4.132.911,7.588,2.155,10.6,4.514-2.355,39.886,7.291,131,13.369,130.719,12.394,39.443,67.675,50.575,106.813,36.714-6.747,12.693,0,20.674,0,27.456,140.827,5.328,294.807,2.26,435.595,9.567,18.009-.256,36.951,4.423,54.714,1.73,10.833-2.6,10.851-19.63-.137-21.736l48.013-10.428c-1.073-.4,19.791-14.283,35.56-40.216,14.678-29.01,4.688-64.028,11.339-95.584,51.944-4.248,104.748-6.064,156.124-14.861,7.005,20.959,37.329-4.107,46.967-14.19l-.036-.047a11.708,11.708,0,0,0,8.531-10.824c3.271-4.674,3.958-11.262.821-15.779,14.378-82.968,36.3-167.68,44.222-251.428a17.73,17.73,0,0,0,7.675-3.74l-.181-.181c3.789-4.224,4.526-11.515-1.791-15.1C980.865,232.029,976.611,232.928,971.081,233.472Z" transform="translate(25.001 -24)" fill="#d08b5b"></path><path id="_Top" data-name="ðŸ‘• Top" d="M599.044,706.568c-18.912,0-46.669-1.85-82.5-5.5-15.769-1.606-48.213-3.12-96.432-4.5-40.841-1.168-85.028-2.025-117.292-2.651h-.1c-16.834-.327-30.13-.585-38.016-.791l-2.164-.059c-22.335-.645-44.847-.971-66.91-.971s-44.3.327-66.09.971v-27l125-62,112-63,54-25,11,7,90,29,55,7,45-7v77l9,72c-1,1.825-4.149,3.212-9.375,4.125S608.5,706.568,599.044,706.568ZM170.6,504.653H147.368L12.183,472.007,0,467.986a336.59,336.59,0,0,1,5.035-35.972c2.221-11.447,5.108-23.361,8.58-35.412a584.928,584.928,0,0,1,24.849-68.464c2.783-8.043,4.253-16.741,5.675-25.153,1.335-7.9,2.715-16.06,5.18-23.753,7.474-33.58,16.611-60.791,27.934-83.188,2.722-5.385,5.623-10.58,8.62-15.439,2.94-4.767,6.071-9.368,9.3-13.675A162.067,162.067,0,0,1,115.9,144.112c13.563-12.348,29.547-22.772,50.3-32.806,18.815-9.1,39.246-16.841,62.9-25.81l.009,0c21.418-8.12,45.693-17.323,71.681-28.819a11.661,11.661,0,0,1-3.639-8.439,27.163,27.163,0,0,1,2.2-10.725c2.617-6.667,7.6-14.493,13.677-21.471A65.377,65.377,0,0,1,320.4,8.686c2.244-1.851,3.967-2.829,4.982-2.829a.9.9,0,0,1,.745.315l.213-.019.462-.024.594-.021c1.561-.045,4.395-.071,7.98-.071,7.273,0,16.307.105,17.642.256A58.258,58.258,0,0,1,356.773,0l8.267,6.172-18.047,29.65,87.913,71.111v56.8l27.832,26.325,15.908-26.325,22.417-29.811L516.994,85.6,511.57,53.76l10.908-1.028c.053,2.169.044,4.384-.026,6.583a1.722,1.722,0,0,1,.9-.16c1.946,0,6.516,1.058,11.154,3.018a35.95,35.95,0,0,1,6.559,3.53,15.183,15.183,0,0,1,4.6,4.662,6.937,6.937,0,0,1-.119,7.386A17.261,17.261,0,0,1,551.065,89c.478-.024.969-.036,1.458-.036,5.534,0,12.559,1.494,20.88,4.442A199.622,199.622,0,0,1,597.7,104.191c7.465,3.85,15.37,8.329,23.495,13.314,8.2,5.033,14.581,9.321,18.486,12.031a57.38,57.38,0,0,1,13.905,16.47,107.9,107.9,0,0,1,8.692,19.862l1.1,3.358,1.138,3.447,1.145,3.445c6.023,18.019,12.906,37.21,22.415,55.461.149.014.3.037.438.057l.026,0,.136.02a9.566,9.566,0,0,1,6.584-2.425,29.364,29.364,0,0,1,7.654,1.447,35.478,35.478,0,0,0,6.258,1.363,5.407,5.407,0,0,1,3.649-1.555,3.772,3.772,0,0,1,3.235,1.754l.121.187L631.8,249.051l-55.66,195.244L527.67,404.949l-26.018,3.87L432.942,433.6,353.03,454.357Z" transform="translate(32.456 3.932)" fill="#ffcf77"></path><path id="_Computer" data-name="ðŸ’» Computer" d="M127.855,341.045v0c5.676-21.482,10.058-39.152,13.793-55.609,1.406-6.2,2.813-12.5,4.173-18.588l0-.014c3.255-14.573,6.621-29.642,10.216-44.4,10.053-41.275,21.627-83.542,34.4-125.626,2.624-8.645,5.355-17.427,8.119-26.1l1.941-6.069,1.494-4.836a57.57,57.57,0,0,1,4.3-10.749,21.378,21.378,0,0,1,7.651-8.269,38.365,38.365,0,0,1,10.529-4.1c3.768-.94,7.693-1.556,11.49-2.152,2-.314,3.885-.61,5.731-.947l6.094-1.145c9.072-1.693,18.285-3.344,27.383-4.909,43.561-7.493,87.947-13.582,131.926-18.1,22.77-2.338,46-4.307,69.044-5.851C498.977,2.05,522.262.894,545.35.145L549.967,0l-2.513,14c-.593.194-1.205.361-1.821.5-.766,8.1-1.7,16.534-2.766,25.072l-15.581,86.839c-2.771,15.84-5.358,31.489-7.771,46.16l-3.356,16.544L514.082,199.4c-4.232,21-8.7,43.6-12.67,66.531a10.917,10.917,0,0,1,1.351,2.679l-.294,1.244-.2.83-.21.819a68.477,68.477,0,0,1-2.758,8.518,39.434,39.434,0,0,1-4.054,7.684,26.434,26.434,0,0,1-5.809,6.149,23.779,23.779,0,0,1-8.022,3.912c-6.941,1.914-14.448,2.539-21.708,3.143-2.477.206-5.037.419-7.507.68l-1.068.116L282.469,320.672c-17.749,2-36.6,4.166-61.116,7.037L203.7,329.78c-4.253.493-8.582.975-12.768,1.441l-.05.006c-20.034,2.232-40.75,4.54-60.791,8.8a5.447,5.447,0,0,0-2.229,1.012ZM377.9,119.157a3.684,3.684,0,0,0-3.677,4.458l.118.6a19.009,19.009,0,0,1-1.177,10.7,27.156,27.156,0,0,1-6.139,9.013,34.544,34.544,0,0,1-5.455,4.077c-3.544,2.315-7.209,4.71-8.594,8.643a7.7,7.7,0,0,0-.107,4.978,9.482,9.482,0,0,0,2.7,4.1l-.58.286-.567.29-.554.293-.54.3-.526.3A30.909,30.909,0,0,0,345.7,172.6a14.068,14.068,0,0,0-3.852,6.936c-.637,3.359.424,6.793,3.154,10.209a22.9,22.9,0,0,0,6.28,5.376,33.262,33.262,0,0,0,7.853,3.282,65.144,65.144,0,0,0,17.552,2.084c2.571,0,5.266-.1,8.237-.294l.868-.06c9.485-.711,26.523-3.823,34.067-16.669a14.2,14.2,0,0,0,2.006-8.4,12.785,12.785,0,0,0-3.572-7.824c-2.474-2.588-7.143-5.528-11.548-5.871a14.244,14.244,0,0,0-.947-6.7,11.518,11.518,0,0,0-4.628-5.154,13.687,13.687,0,0,0-6.781-2.049c.156-3.7-.952-7.706-3.391-12.241a93.688,93.688,0,0,0-7.5-11.164c-.416-.558-.846-1.135-1.262-1.7l-.542-.739-.527-.726a4.021,4.021,0,0,0-3.27-1.745ZM125.48,339.94h0a6.534,6.534,0,0,0-3.826-1.132h-.3a120.46,120.46,0,0,1-30.233-4.192A282.686,282.686,0,0,1,62,325l-2.918-1.112-8.134-3.127c-7.494-2.871-16.228-6.158-25.051-8.835L22.474,310.9l-1.74-.514c-5.925-1.73-12.914-3.558-19.825-4L0,306.335l1.942-1.019a4.591,4.591,0,0,0,.754-.5c1.331.1,2.577.146,3.811.146a41.283,41.283,0,0,0,7.41-.647,69.562,69.562,0,0,0,20.866-7.371l2.9-1.573,1.189-.631.786-.408.781-.394a39.173,39.173,0,0,1,6.272-2.575,23.008,23.008,0,0,1,6.682-1.011,24.152,24.152,0,0,1,5.021.541c6.424,1.352,12.3,4.444,17.977,7.433,1.394.734,2.834,1.492,4.257,2.211l1.281.638.86.416.877.413.888.406c6.717,3.022,12.454,4.554,17.051,4.554,6.32,0,10.349-2.924,11.976-8.692,1.381-4.9.613-9.841-2.282-14.7.176-.015.354-.022.529-.022,2.5,0,5.838,1.362,9.375,2.8,3.462,1.411,7.041,2.87,10.144,3.182l.43.035-6.3,50.36ZM376.3,193.481a64.38,64.38,0,0,1-12.06-.975,27.928,27.928,0,0,1-10.748-4.161c-2.771-1.9-4.38-4.177-4.654-6.58a7.912,7.912,0,0,1,2.441-6.3c2.345-2.552,4.768-5.189,7.281-7.755a10.014,10.014,0,0,0,4.395,1.03,15.86,15.86,0,0,0,6.438-1.654.432.432,0,0,0,.245-.508.546.546,0,0,0-.505-.453c-1.045,0-3.454-.95-5.726-2.258-1.256-.722-4.2-2.57-4.435-4.121-.311-2.068,3.059-3.826,5.288-4.99l.007,0c.244-.127.475-.248.682-.359l.3-.164.26-.151a38.158,38.158,0,0,0,6.063-4.551,32.255,32.255,0,0,0,9.657-15.778l.131-.544,4.841,18.133-.084.149a3.257,3.257,0,0,0,.134,3.264,3.787,3.787,0,0,0,3.126,1.877,2.97,2.97,0,0,0,2.155-.948l.267-.287a3.465,3.465,0,0,1,2.549-1.143,5.336,5.336,0,0,1,3.738,1.884,6.107,6.107,0,0,1,1.749,3.836,11.036,11.036,0,0,1-1.982,6.454,17.186,17.186,0,0,1-4.879,4.667l-.265.172-.7.433a2.9,2.9,0,0,0-1.316,3.352,3.563,3.563,0,0,0,3.4,2.5,3.764,3.764,0,0,0,.567-.044c3.885-.595,7.457-3.57,9.8-8.164a22.163,22.163,0,0,0,2.485.508,14.088,14.088,0,0,1,4.778,1.405,5.632,5.632,0,0,1,3.23,4.237,7.46,7.46,0,0,1-1.209,4.551,17.951,17.951,0,0,1-3.388,4.072l-.16.143-.32.279a34.019,34.019,0,0,1-12.384,6.511,58.539,58.539,0,0,1-13.918,2.239l-.534.024C381.215,193.39,378.79,193.481,376.3,193.481Z" transform="translate(459.6 215.4)" fill="#fff"></path><path id="_Ink" data-name="ðŸ– Ink" d="M644.108,714.587a3.747,3.747,0,0,1-2.779-1.232,17.477,17.477,0,0,1-3.893-6.888,52.855,52.855,0,0,1-1.61-7.814v-.006l0-.016c-.134-.867-.272-1.763-.423-2.645-1.054-6.166-2.009-12.569-2.921-19.574-1.917-14.734-2.971-26.864-3.317-38.176-.4-13.028-.246-26.254.459-39.31.344-6.363.783-13.2,1.666-20.116.406-3.182.759-5.852,1.161-8.539.15-1,.317-2.015.512-3.1l-10.811,1.22c-15.833,1.767-32.725,3.515-49.856,3.781H572.2a5.4,5.4,0,0,1-4.4-2.182,6.206,6.206,0,0,1-5.512,2.948h-.032c-23.787-.088-45.888-8.076-66.227-16.694-5.084-2.155-10.21-4.43-15.168-6.63l-.021-.009c-5.465-2.425-11.117-4.933-16.725-7.286-4.12-1.729-8.429-3.279-12.6-4.778a183.264,183.264,0,0,1-17.826-7.127l-25.62,13.439a10.53,10.53,0,0,1-4.208,5.885,22.7,22.7,0,0,1-4.793,2.566,19.918,19.918,0,0,1-7.67,1.528,20.828,20.828,0,0,1-2.146-.112c-23.43,12.277-41.414,21.685-58.313,30.5l-19.453,10.14c-11.248,5.857-22.577,11.79-33.532,17.527-27.079,14.182-55.08,28.847-82.828,42.866l-2.871,1.445c-12.556,6.3-27.47,13.443-42.885,18.711a76.159,76.159,0,0,0,.22,11.469l.076.873c.034.363.071.725.109,1.109l0,.042a34.478,34.478,0,0,1,.227,6.969,8.763,8.763,0,0,1-2.735,5.912,4.976,4.976,0,0,1-3.266,1.223,3.858,3.858,0,0,1-3.58-2.106,13.446,13.446,0,0,1-1.087-6.814,58.845,58.845,0,0,1,1.049-7.5c.212-1.15.412-2.233.562-3.24a49.273,49.273,0,0,1,1.1-5.6,152.717,152.717,0,0,1-18.426,4.321,114.164,114.164,0,0,1-18.621,1.6,94,94,0,0,1-15.188-1.212,53.069,53.069,0,0,1-12.037-3.487,59.928,59.928,0,0,1-10.721-5.936,76.32,76.32,0,0,1-9.525-7.866,103.674,103.674,0,0,1-8.449-9.279,120.433,120.433,0,0,1-14.3-22.283,121.976,121.976,0,0,1-9.107-24.864,171.148,171.148,0,0,1-4.392-29.823c-.678-10.125-.721-20.489-.666-30.18.068-11.9.338-22.414.828-32.148.578-11.5,1.458-21.983,2.689-32.041a34.716,34.716,0,0,0-7.706-1.091c-.408,0-.81.013-1.194.04a6.187,6.187,0,0,1-2.535,2.257,7.457,7.457,0,0,1-3.274.745,7.594,7.594,0,0,1-.891-.053,4.02,4.02,0,0,0-1.13,3.83c.507,1.989,2.557,4.072,6.091,6.191a45.463,45.463,0,0,0,7.813,3.653,1.61,1.61,0,0,1,1.023,1.808,1.3,1.3,0,0,1-1.344,1.141l-.077,0-1.113-.053c-6.93-.369-13.892-1.577-17.869-7.863A12.081,12.081,0,0,1,.086,486.7a12.958,12.958,0,0,1,3.432-7.266c2.265-21.418,7.434-42.671,12.432-63.224l.032-.131c.571-2.349,1.162-4.778,1.738-7.167,5.119-21.228,11.063-43.562,18.172-68.277l2.918-10.129c4.935-17.091,10.3-35.364,16.09-53.2,6.352-19.568,12.569-36.624,19.007-52.142,3.975-9.582,7.776-17.791,11.62-25.1a177.7,177.7,0,0,1,14.593-23.461,165.137,165.137,0,0,1,16.8-19.283,172.334,172.334,0,0,1,19.551-16.491c11.722-8.5,25.376-16.2,41.743-23.54,14.425-6.47,29.387-11.99,44.724-17.542l1.342-.485c14.93-5.4,30.881-11.246,46.378-17.391,7.018-2.782,14-6,20.743-9.113,6.307-2.91,12.829-5.918,19.36-8.559-.446-.81-.874-1.624-1.272-2.418l-.249.211-.005,0,0,0c-.039.03-.08.061-.122.09a3,3,0,0,1-1.725.51,4.164,4.164,0,0,1-2.755-1.088,5.513,5.513,0,0,1-1.968-4.654,10.219,10.219,0,0,1,1.987-4.737l.276-.394c1.969-2.758,3.8-5.682,5.579-8.51.522-.831,1.113-1.773,1.689-2.679l1.493-2.345c3.916-6.13,8.186-12.549,13.536-17.74a29.28,29.28,0,0,1,8.04-5.529.278.278,0,0,1,.044-.272,2.912,2.912,0,0,1,1.975-.918.734.734,0,0,1,.494.146,47.166,47.166,0,0,1,16.3-2.468c4.548,0,9.154.391,13.114.758l1.887-5.991a10.081,10.081,0,0,1,3.576-4.7A8.322,8.322,0,0,1,377.4,0a8.727,8.727,0,0,1,8.408,6.405,10.754,10.754,0,0,1,.247,4.463c-.932,6.535-4.363,13.319-7.933,19.678-2.279,4.058-5.465,9.209-9.911,13.047,7.4,6.9,15.123,13.59,22.956,19.872a283.248,283.248,0,0,0,26.972,19.081c2.526,1.579,5.127,3.126,7.642,4.622a181.123,181.123,0,0,1,16.831,10.876,65.556,65.556,0,0,1,9.968,9.084,38.513,38.513,0,0,1,7.08,11.406,32,32,0,0,1,2.005,13.769,62.875,62.875,0,0,1-2.612,13.764l-.3,1.026c-.315,1.06-.648,2.119-1,3.24-2.593,8.241-5.531,17.582.118,25.057,2.375,3.142,5.569,5.643,8.658,8.061,1.141.893,2.319,1.816,3.43,2.752a94.3,94.3,0,0,1,10.179,9.975,82.458,82.458,0,0,1,15.879,26.364l.313.888a58.07,58.07,0,0,1,3.218,13.944,26.509,26.509,0,0,1-2.078,13.826,2.59,2.59,0,0,1-2.437,1.484,3.231,3.231,0,0,1-3.133-2.212,59.066,59.066,0,0,1-1.487-8.9,70.593,70.593,0,0,0-1.147-7.558,62.243,62.243,0,0,0-6.221-16.143,87.439,87.439,0,0,0-21.384-25.379l-2.591-2.107a57.965,57.965,0,0,1-9.178-8.932,24.593,24.593,0,0,1-5.143-11.653c-1.173-7.846,1.131-15.474,3.359-22.852l.006-.02c.551-1.826,1.121-3.714,1.625-5.565,2.008-7.374,2.145-13.259.434-18.519a77.772,77.772,0,0,1-5.961,8.052c-.719.889-1.4,1.729-2.046,2.558-3.887,4.979-7.846,9.99-11.675,14.836l-.518.656-2.879,3.645c-5.712,7.239-10.612,13.777-14.98,19.986-2.308,3.283-4.519,6.483-6.376,9.18-.867,1.258-1.94,2.54-2.979,3.779l-.005.007c-.869,1.037-1.767,2.109-2.553,3.176a4.112,4.112,0,0,1-.373,3.738c-1.631,2.2-3.49,3.32-5.528,3.321-3.417,0-7.386-3.1-11.8-9.225a111.606,111.606,0,0,1-8.074-13.618l-.191-.367-.071-.136c-3.452-6.627-6.514-13.57-9.475-20.285-3-6.792-6.092-13.814-9.593-20.512a320.782,320.782,0,0,0-24.588-39.854c-2.1-2.888-4.325-5.752-6.479-8.522-3.533-4.544-7.186-9.242-10.335-14.133a105.675,105.675,0,0,1-20.1,13.922c-7.459,4.12-15.5,7.788-21.962,10.735l-.008,0c-12.321,5.618-25.216,10.514-37.687,15.249l-.025.009c-3.564,1.353-7.25,2.753-10.863,4.146l-4.8,1.865c-15.806,6.169-28.956,11.589-41.758,17.993-15.148,7.577-27.647,15.544-38.212,24.356a143.619,143.619,0,0,0-18.531,18.672,174.344,174.344,0,0,0-15,21.3,229.89,229.89,0,0,0-12.131,23.2c-3.41,7.467-6.655,15.435-9.92,24.36-6.491,17.741-12.774,36.547-19.208,57.494-5.3,17.269-10.652,35.776-16.828,58.243-5.519,20.073-10.75,40.246-15.548,59.959-1.468,6.032-2.874,12.185-4.234,18.137l0,.018c-2.621,11.475-5.332,23.341-8.61,34.855.444-.016.89-.023,1.323-.023,6.177,0,12.658,1.417,18.926,2.787,3.579.782,6.958,1.521,9.992,1.918,21.164,2.771,40.27,6.165,58.409,10.376,9.826,2.281,19.462,4.837,28.641,7.6,9.635,2.9,19.1,6.116,28.122,9.569a7.839,7.839,0,0,1,4.548,4.287,8.86,8.86,0,0,1,.362,5.754l3.162-.9.118-.034c1.651-.469,3.141-.891,4.647-1.314-2.358-3.613-1.881-9.526-1.5-14.278.087-1.078.169-2.1.211-3.01l.014-.338c.154-4.31.519-8.686.873-12.919l0-.022c.184-2.2.374-4.477.531-6.712.93-13.217,2.088-25.4,3.541-37.245l.388-3.1c.734-5.746,1.4-11.6,2.036-17.252v-.008c.864-7.634,1.758-15.529,2.837-23.26l.222-1.542c-.783-2.994-1.724-6.151-3.051-10.236-2.051-6.311-4.739-12.466-7.337-18.42-1.118-2.56-2.273-5.206-3.367-7.841a.8.8,0,0,1,.053-.785,1.176,1.176,0,0,1,.969-.469,1.041,1.041,0,0,1,.7.251,61.718,61.718,0,0,1,8.309,9.262,87.285,87.285,0,0,1,6.641,10.618c.03-.15.058-.3.086-.451.034-.183.073-.39.113-.589l.447-2.2c1.113-5.412,2.472-11.059,5.742-15.382a.937.937,0,0,1,.732-.384.734.734,0,0,1,.645.384,25.17,25.17,0,0,1,2.9,8.249,82.377,82.377,0,0,1,1.01,8.818c.029.371.058.738.087,1.1.62,7.754.594,15.537.521,20.716-.151,10.774-.8,21.737-1.425,32.339-.147,2.488-.314,5.309-.469,8.066-.678,12.078-2.011,24.943-4.075,39.327l-.357,2.453c-.247,1.68-.487,3.395-.719,5.053l0,.013c-.628,4.494-1.276,9.135-2.159,13.643l-.342,1.683c-.2.951-.377,2.023-.564,3.158a45.689,45.689,0,0,1-1.769,7.822c31.663-8.831,65.166-17.965,99.58-27.148,17.067-4.555,34.425-9.135,51.211-13.565,6.846-1.806,13.925-3.674,20.927-5.525a27.069,27.069,0,0,1,4.821-6.333,26.011,26.011,0,0,1,6.909-4.888,17.862,17.862,0,0,1,7.666-1.82,15.946,15.946,0,0,1,8.43,2.452,1.075,1.075,0,0,1,.5.945.956.956,0,0,1-.5.837c-1.784.975-3.22,1.789-4.518,2.56l14.44-3.911c3.182-.862,6.435-1.805,9.581-2.718l.013,0c7.562-2.193,15.382-4.46,23.168-5.9,19.951-9.845,41.535-17.078,62.41-24.072l1.256-.421,2.526-.854c1.46-.5,2.981-1.022,4.323-1.485,9.579-3.3,19.485-6.716,29.342-8.52a29.193,29.193,0,0,1,5.236-.483,21.038,21.038,0,0,1,9.63,2.117,13.433,13.433,0,0,1,6.517,7.183,133.585,133.585,0,0,1,12.039,9.277c1.958,1.642,3.89,3.385,5.758,5.07l.024.022c.771.7,1.568,1.414,2.356,2.116l.5.437.49.422.02.017c1.952,1.677,3.494,3,3.994,5.816a3.422,3.422,0,0,1-.7,2.694,2.173,2.173,0,0,1-1.7.82,2.438,2.438,0,0,1-.262-.014c-4.756-.509-8.76-4.971-12.294-8.908l0,0c-.884-.985-1.72-1.916-2.529-2.742-3.52-3.6-6.416-6.667-9.107-9.976a4.244,4.244,0,0,1-2.02.526,3.222,3.222,0,0,1-2.969-1.785,9.657,9.657,0,0,0-4.217-4.253,12.6,12.6,0,0,0-5.689-1.191c-4.814,0-10.379,1.889-14.851,3.407l-.006,0c-1.441.489-2.8.951-4.013,1.31l-11.89,3.519c-4.93,1.461-11.41,3.388-17.819,5.335-5.98,1.816-12.034,3.738-17.888,5.6-10.158,3.225-20.662,6.559-31.093,9.443a3.426,3.426,0,0,1,.818,3.08,3.612,3.612,0,0,1-2.344,2.511c-9.352,3.669-19.477,6.079-29.268,8.41l-.014,0c-3.66.871-7.444,1.772-11.1,2.72-8.374,2.171-16.9,4.4-25.329,6.612a20.612,20.612,0,0,0-2.926,8.083,60.471,60.471,0,0,0,.522,17.852,160.662,160.662,0,0,0,4,17.572l.455,1.638a85.947,85.947,0,0,0,4.957,13.83c2.49,5.151,5.37,8.877,8.8,11.39a13.412,13.412,0,0,0,6.612,2.519c15.154-7.8,29.977-15.43,44.728-23a4.163,4.163,0,0,1,1.911-.486,4.354,4.354,0,0,1,4.025,3.271,97.5,97.5,0,0,0,15.286-3.845,68.121,68.121,0,0,0,13.189-6.69c2.765-1.669,5.622-3.393,8.639-4.835a26.22,26.22,0,0,1,11.551-2.592,41.257,41.257,0,0,1,14.443,2.985,140.682,140.682,0,0,1,13.793,6.339c.888.448,1.805.91,2.7,1.354l3.005,1.477c4,1.941,9.847,4.521,14.421,4.521,3.29,0,5.444-1.343,6.4-3.992a9.188,9.188,0,0,0,.141-5.647,16.413,16.413,0,0,0-2.75-5.357,32.634,32.634,0,0,0-8.8-7.907,53.531,53.531,0,0,0-10.56-4.828c-3.893-1.34-7.849-2.346-11.2-3.153-4.356-1.048-8.7-1.881-12.92-2.474-1.57-.221-3.183-.363-4.743-.5a43.034,43.034,0,0,1-10.008-1.685,2.93,2.93,0,0,1-1.9-2.9,2.33,2.33,0,0,1,1.9-2.247,28.72,28.72,0,0,1,6.34-.654c5.589,0,11.61,1.276,17.284,2.656l3.981.981c6.442,1.581,14.81,3.919,22.408,8a46,46,0,0,1,7.567,5.1,34.733,34.733,0,0,1,6.383,6.861,8.762,8.762,0,0,1,6.248-2.357,17.7,17.7,0,0,1,4.528.675l2.141.595a26.3,26.3,0,0,0,7.046,1.25,14.281,14.281,0,0,0,2.8-.275c.442-2.4.921-4.979,1.426-7.511,5.013-25.17,10.468-49.907,16.213-73.523,5.066-20.825,10.633-41.941,16.544-62.76,5.848-20.6,12.2-41.486,18.881-62.094l1.34-4.117c.687-2.1,1.357-4.288,2.005-6.4l.007-.021c2.29-7.47,4.657-15.194,8.509-21.91a30.4,30.4,0,0,1,8.987-9.828,39.72,39.72,0,0,1,12.168-5.563,237.6,237.6,0,0,1,23.268-4.833l.033-.006c2.579-.446,5.245-.908,7.844-1.389,1.38-.255,2.815-.511,4.082-.738.934-.167,1.9-.34,2.85-.512a76.176,76.176,0,0,1-3.685-8.092c-.361-.885-.7-1.717-1.036-2.5l-.23-.532c-3.074-7.009-5.783-14.131-7.8-19.552l-1.83-4.946c-4.215-11.368-8.859-23.417-15.185-34.766A89.565,89.565,0,0,0,656.721,154.8a94.825,94.825,0,0,0-14.611-13.2c-10.29-7.554-21.755-13.476-32.842-19.2-6.327-3.268-12.868-6.647-19.122-10.294a142.871,142.871,0,0,1-18.012-12.217.75.75,0,0,1-.271-.865,1.1,1.1,0,0,1,1-.7.9.9,0,0,1,.407.1c10.087,5.069,20.9,9.064,31.355,12.928l.005,0c4.5,1.662,9.146,3.38,13.665,5.157l2.962,1.168c11.6,4.6,23.788,9.729,34.186,17.439a94.9,94.9,0,0,1,15.375,14.271,97.9,97.9,0,0,1,11.871,17.308c5.447,10.081,9.33,21.246,13.085,32.043l0,.009c.841,2.418,1.71,4.918,2.579,7.351l1.26,3.519c1.813,5.028,3.808,10.406,6.115,15.669.719,1.64,1.674,3.349,2.686,5.159a48.055,48.055,0,0,1,3.948,8.227l.828-.144.034-.006c3.793-.658,7.715-1.339,11.576-1.984,22.351-3.732,45.087-7.127,67.576-10.092,22.471-2.962,45.308-5.576,67.877-7.767s45.473-4.02,68.1-5.437,45.591-2.461,68.255-3.1l.154,0a4.462,4.462,0,0,1,3.516,1.6,5.964,5.964,0,0,1,1.211,4.806c-4.925,29.126-9.611,58.745-14.143,87.389l-.01.061c-3.518,22.233-7.155,45.224-10.877,67.809-3.8,23.051-7.633,45.82-11.4,67.675-.842,4.886-1.752,9.832-2.632,14.616-1.183,6.427-2.405,13.069-3.473,19.623-.321,1.974-.629,3.984-.926,5.929l-.011.072a173.9,173.9,0,0,1-4.24,21.57c-2.675,9.346-6.5,16.564-11.707,22.066a34.186,34.186,0,0,1-11,7.623,54.348,54.348,0,0,1-12.912,3.774c-15.56,2.678-31.639,4.281-47.189,5.831-6.86.684-13.951,1.391-20.892,2.181l-120.447,13.7c.854,7.764,1.346,15.581,1.5,23.9.145,7.593.007,15.455-.421,24.036l-.46,8.836c-.36,6.794-.8,14.032-1.847,21.257a40.016,40.016,0,0,1-3.881,12.279,48.635,48.635,0,0,1-7.38,10.605c-5.257,5.828-11.508,10.769-18.542,16.164-6.122,4.7-13.337,9.984-21.487,13.273l-1.022.406a101.646,101.646,0,0,1-11.389,3.7,55.563,55.563,0,0,1-13.539,1.975,27.6,27.6,0,0,1-4.376-.326c.238,1.194.525,2.428.8,3.621,1.186,5.108,2.412,10.39.7,15.328a4.652,4.652,0,0,1-1.664,2.224A4.371,4.371,0,0,1,644.108,714.587Zm79.7-157.46-12.62,1.435c-14.8,1.685-29.367,3.281-41.665,4.621l-30.172,3.279c-.038.85-.107,1.674-.174,2.47v.008c-.067.8-.131,1.565-.15,2.222-.2,6.957-.357,14.021-.483,20.1-.277,13.354.029,26.9.911,40.271.994,15.072,2.182,27.424,3.739,38.873l.359,2.578.208,1.356a5.933,5.933,0,0,1,4.006,2.215c.74.883,2.11,1.331,4.074,1.331,3.486,0,8.084-1.376,11.328-2.53,6.04-2.149,11.822-5.886,16.681-9.258a104.785,104.785,0,0,0,13.929-11.859l3.566-3.526c3.482-3.461,7.067-7.216,9.271-11.714,2.43-4.957,3.108-10.788,3.765-16.427.135-1.161.275-2.362.427-3.513.932-7.048,2.1-14.713,3.67-24.121l9.331-37.808ZM25.717,484.446l-.055,13.108c-.066,17.833-.051,36.822.911,55.678l.18,3.439c1.079,20.185,2.753,41.538,10.16,61.222a116.93,116.93,0,0,0,11.512,22.746,104.928,104.928,0,0,0,16.357,19.522,62.185,62.185,0,0,0,9.918,7.655,43.356,43.356,0,0,0,11.469,4.961,64.358,64.358,0,0,0,16.838,2.026c2.242,0,4.535-.084,7.009-.256,33.12-2.31,63.1-18.215,92.1-33.6l.005,0h0c4.387-2.327,8.924-4.733,13.36-7.03,51.959-26.9,107.346-55.565,163.012-84.247a26.681,26.681,0,0,1-4.113-3.463c-6.118-6.32-10.46-15.16-13.663-27.822a146.839,146.839,0,0,1-4.485-32.985l1.219-12.816-1.309.345c-13.539,3.6-27.272,7.279-40.553,10.838-33.449,8.966-68.037,18.237-102.175,26.882-13.605,3.445-27.471,6.8-40.88,10.046-9.861,2.386-20.058,4.854-30.073,7.338l-3.826.958c-18.323,4.63-37.415,10.29-51.789,23.906a.55.55,0,0,1-.38.161.6.6,0,0,1-.531-.364.531.531,0,0,1,.115-.594c6.951-7.4,15.793-13.467,27.032-18.551,10.181-4.6,21.021-7.848,31.251-10.774,2.138-.611,4.314-1.225,6.418-1.819l.09-.025c1.5-.423,3.369-.95,5.15-1.457-31.8-11.335-60.353-19.635-87.3-25.371-3.79-.807-7.667-1.519-11.415-2.208h-.005c-3.811-.7-7.752-1.424-11.6-2.248-3.432-.734-6.866-1.694-10.187-2.623-1.835-.513-3.732-1.043-5.619-1.533Zm964.876-264c-23.866.721-47.929,1.874-71.52,3.427-23.825,1.568-47.831,3.588-71.349,6-43.964,4.514-88.35,10.6-131.925,18.1-9.094,1.564-18.307,3.215-27.383,4.909l-5.468,1.029c-2.039.386-4.136.715-6.357,1.064-3.8.6-7.721,1.211-11.49,2.152a38.362,38.362,0,0,0-10.528,4.1,22.129,22.129,0,0,0-8.231,9.359,74.766,74.766,0,0,0-4.453,12.031c-.336,1.1-.682,2.228-1.036,3.327-3.329,10.348-6.621,20.882-9.786,31.308-12.768,42.07-24.341,84.337-34.4,125.626-3.591,14.74-6.952,29.787-10.2,44.339l0,.007,0,.012c-1.365,6.112-2.777,12.433-4.187,18.646-3.735,16.463-8.118,34.134-13.794,55.612a5.45,5.45,0,0,1,2.231-1.013c20.045-4.265,40.764-6.573,60.8-8.806,4.193-.467,8.528-.95,12.81-1.446l2.381-.277c24.173-2.843,50.158-5.881,76.392-8.83l168.658-18.967c2.817-.317,5.744-.56,8.573-.8,7.262-.6,14.769-1.229,21.71-3.143,7.337-2.024,12.792-6.932,16.675-15,3.257-6.772,4.887-14.549,6.4-22.59l.084-.443c4.979-26.483,9.424-53.548,13.723-79.722l0-.019c2.884-17.563,5.867-35.724,8.99-53.576ZM562.258,559.257h.024a6.52,6.52,0,0,1,3.822,1.133l6.3-50.361c-3.2-.211-6.947-1.74-10.574-3.218-3.537-1.442-6.877-2.8-9.375-2.8-.182,0-.36.007-.529.022,2.895,4.857,3.663,9.8,2.282,14.7-1.626,5.767-5.656,8.692-11.977,8.692a34.632,34.632,0,0,1-10.808-2.08A76.108,76.108,0,0,1,522,521.354c-1.671-.831-3.352-1.716-4.979-2.573-5.679-2.989-11.551-6.081-17.976-7.433a24.486,24.486,0,0,0-5.019-.541c-6.494,0-11.7,2.834-17.737,6.115l-.879.478a69.584,69.584,0,0,1-20.865,7.371,41.321,41.321,0,0,1-7.408.646c-1.235,0-2.482-.048-3.812-.147a4.541,4.541,0,0,1-.754.5l-1.942,1.02c8.8.4,17.884,3.159,25.9,5.592,8.812,2.674,17.551,5.963,25.051,8.837l8.134,3.126a305.272,305.272,0,0,0,30.521,10.327,122.33,122.33,0,0,0,31.747,4.59ZM338.074,20.241a22.5,22.5,0,0,0-5.109,4.034c-4.806,5.1-8.268,11.417-11.615,17.528l-.2.365c-.834,1.523-1.657,3.057-2.452,4.541l-.011.021c-.973,1.815-1.979,3.691-2.993,5.523-.878,1.586-1.781,3.147-2.47,4.331a17.369,17.369,0,0,1-1.174,1.578l0,0h0c-.338.425-.688.865-.928,1.206.588.823,1.228,1.682,1.957,2.625.052.067.8.892,2.044,2.26l.051.056c5.086,5.6,17,18.7,21.868,24.661,4.763,5.827,9.238,11.793,13.3,17.732,4.219,6.167,8.136,12.511,11.642,18.856,4.159,7.529,7.791,15.452,11.3,23.115,2.417,5.274,4.916,10.725,7.57,16.012a98.818,98.818,0,0,0,11.526,18.542c.106.13.218.257.326.381l.007.008.013.014c.069.079.138.158.207.239,1.437-3.882,4.69-7.977,7.065-10.967.536-.675,1.043-1.313,1.462-1.866l.208-.277c4.525-6.1,9.555-12.422,15.829-19.9,4.837-5.76,9.987-11.623,15.3-17.424l1.966-2.134c.662-.715,1.341-1.478,2.061-2.285,3.192-3.581,7.164-8.039,11.535-10.343a25.754,25.754,0,0,0-1.993-3.02c-5.148-6.727-12.516-11.546-19.019-15.535l-4.517-2.748C409.416,89.2,402.356,84.429,397.7,81.184a228.3,228.3,0,0,1-23.445-18.523c-7.068-6.447-15.222-14.212-22.108-22.928l-2.326-2.942ZM366.486,15.1c-1.868.157-3.809.271-5.686.38-6.207.363-12.625.739-18.267,2.728,3.893,3.68,7.729,7.593,11.438,11.377,2.526,2.577,5.138,5.242,7.737,7.8a94.725,94.725,0,0,1,2.072-9.956c.215-.873.436-1.774.647-2.663Zm-2.048,649.931a4.122,4.122,0,0,1-3.375-2.07,3.894,3.894,0,0,1-.174-3.9c9.617-18.347,20.954-35.774,31.773-51.872l1.478-2.2c5.091-7.578,10.355-15.413,15.587-23.09,2.825-4.144,5.142-7.461,7.294-10.439l1.5-2.057,8.117-8.882a.732.732,0,0,1,.35-.09.716.716,0,0,1,.708.7c.143,3.563-1.5,7.025-3.085,10.374-.24.506-.511,1.079-.758,1.616l-.181.4c-1.872,4.165-4.072,8.648-6.723,13.706-4.828,9.206-9.784,18.174-14.729,26.654-11.462,19.662-22.983,35.984-35.22,49.9A3.382,3.382,0,0,1,364.438,665.035Zm205.248-178c-4.266,0-8.37-2.183-12.918-6.872l-3.055-3.192a32.528,32.528,0,0,0-6.677-5.672,16.523,16.523,0,0,0-8.76-2.311c-.267,0-.542.005-.818.015a129.472,129.472,0,0,0-15.512,1.839h-.007c-2.93.468-5.96.951-8.929,1.3-8.829,1.044-18.11,1.99-27.585,2.811h-.034a.335.335,0,0,1-.327-.318.367.367,0,0,1,.261-.419l10.321-2.569,40.123-8.093a34.267,34.267,0,0,1,4.131-.266,20.476,20.476,0,0,1,13.478,4.534,52.972,52.972,0,0,1,5.223,5.15,44.586,44.586,0,0,0,6.2,5.9,14.8,14.8,0,0,0,7.958,3,2.412,2.412,0,0,1,2.277,2.159,2.214,2.214,0,0,1-1.653,2.443A13.045,13.045,0,0,1,569.686,487.031Zm7.978-25.108a1.566,1.566,0,0,1-.362-.043,32.577,32.577,0,0,1-9.057-3.831,98.379,98.379,0,0,1-8.117-5.6c-2.008-1.488-4.084-3.025-6.208-4.412-4.727-3.087-9.865-4.463-16.661-4.463-3.226,0-6.5.292-9.957.6l-.608.054c-9.927.884-19.455,2.089-28.318,3.58-3.057.514-6.167,1.142-9.175,1.748a154.015,154.015,0,0,1-17.381,2.82l0-.018a1.161,1.161,0,0,1-1.076-.922.962.962,0,0,1,.516-1.125c8.838-4.413,18.926-6.527,28.682-8.572l.642-.134,28.94-4.5,1.066-.106c3.351-.326,5.91-.471,8.3-.471a40.019,40.019,0,0,1,9.188.965,30.377,30.377,0,0,1,8.888,3.612l1.609.973c7.436,4.52,15.768,9.969,20.526,17.457a1.428,1.428,0,0,1,.047,1.491A1.725,1.725,0,0,1,577.664,461.923Zm239.654-40.985a65.133,65.133,0,0,1-17.553-2.084,33.259,33.259,0,0,1-7.854-3.282,22.91,22.91,0,0,1-6.281-5.377c-2.828-3.538-3.864-7.094-3.079-10.568a15.4,15.4,0,0,1,4.982-7.76,36.739,36.739,0,0,1,8.668-5.692,9.477,9.477,0,0,1-2.7-4.094,7.7,7.7,0,0,1,.106-4.979c1.385-3.933,5.05-6.327,8.593-8.642a34.512,34.512,0,0,0,5.456-4.078,27.159,27.159,0,0,0,6.139-9.013,19.012,19.012,0,0,0,1.177-10.7l-.08-.4a3.855,3.855,0,0,1,.7-3.288,3.813,3.813,0,0,1,2.943-1.37,4.023,4.023,0,0,1,3.271,1.745l.526.726c.573.786,1.164,1.579,1.789,2.419l.018.024a93.668,93.668,0,0,1,7.494,11.163c2.438,4.533,3.546,8.536,3.39,12.238a13.694,13.694,0,0,1,6.781,2.049,11.517,11.517,0,0,1,4.628,5.154,14.248,14.248,0,0,1,.947,6.7c4.405.342,9.074,3.283,11.548,5.87a12.786,12.786,0,0,1,3.572,7.824,14.2,14.2,0,0,1-2.006,8.4c-7.544,12.846-24.582,15.958-34.067,16.669l-.445.032C822.841,420.832,820.008,420.937,817.317,420.937ZM799.181,388.16c-2.5,2.551-4.93,5.2-7.281,7.755a7.912,7.912,0,0,0-2.442,6.3c.273,2.4,1.883,4.679,4.654,6.581a27.927,27.927,0,0,0,10.749,4.161,64.4,64.4,0,0,0,12.061.975h.005c2.491,0,4.914-.09,6.746-.168a59.493,59.493,0,0,0,14.191-2.186,34.174,34.174,0,0,0,12.646-6.588l.32-.279a18.186,18.186,0,0,0,3.486-4.11,7.562,7.562,0,0,0,1.275-4.631,5.622,5.622,0,0,0-3.233-4.262,14.09,14.09,0,0,0-4.775-1.405,22.143,22.143,0,0,1-2.488-.509c-2.344,4.594-5.917,7.57-9.8,8.164a3.767,3.767,0,0,1-.567.044,3.563,3.563,0,0,1-3.4-2.5,2.9,2.9,0,0,1,1.317-3.353l.7-.433A17.469,17.469,0,0,0,838.39,387a11.063,11.063,0,0,0,2.07-6.583,6.105,6.105,0,0,0-1.75-3.836,5.336,5.336,0,0,0-3.738-1.884,3.466,3.466,0,0,0-2.549,1.142l-.144.156A3,3,0,0,1,830,377.08a3.786,3.786,0,0,1-3.126-1.877,3.256,3.256,0,0,1-.134-3.265l.084-.149-4.841-18.134a30.032,30.032,0,0,1-3.6,8.8,34.517,34.517,0,0,1-6.187,7.523,38.165,38.165,0,0,1-6.062,4.55l-.261.151c-.283.159-.644.347-.993.53-2.228,1.163-5.595,2.921-5.284,4.987.234,1.551,3.179,3.4,4.435,4.121,2.273,1.308,4.681,2.257,5.726,2.258a.546.546,0,0,1,.505.453.432.432,0,0,1-.245.508,15.873,15.873,0,0,1-6.439,1.654A10.011,10.011,0,0,1,799.181,388.16ZM234.648,335.028a2.8,2.8,0,0,1-2.959-2.42c-1.807-11.632-3.6-23.443-5.344-34.864l0-.014c-2.056-13.5-4.182-27.469-6.331-41.194-1.529-9.765-3.279-19.664-4.971-29.237l0-.016c-.514-2.9-1.045-5.908-1.568-8.9l-5.608-36.706a.686.686,0,0,1,.2-.5.819.819,0,0,1,.573-.235.7.7,0,0,1,.627.359c5.465,9.615,8.547,20.985,11.528,31.979.339,1.249.688,2.538,1.035,3.8,3.034,11.044,5.778,22.984,8.635,37.574,2.513,12.827,4.444,25.728,5.74,38.345,1.316,12.816,2.029,25.84,2.119,38.713a3.033,3.033,0,0,1-.9,2.2A3.973,3.973,0,0,1,234.648,335.028Zm41.166-36.488a4.33,4.33,0,0,1-3.256-1.529,3.838,3.838,0,0,1-.8-3.276L268.37,200.4a1.046,1.046,0,0,1,.126-.971,1.181,1.181,0,0,1,.956-.445,1.237,1.237,0,0,1,1.179.794,174.407,174.407,0,0,1,7.617,23.235,165.435,165.435,0,0,1,4.208,24.142,143.625,143.625,0,0,1-3.28,48.618A3.363,3.363,0,0,1,275.814,298.539ZM463.071,212.8a1.865,1.865,0,0,1-1.521-.714,21.12,21.12,0,0,1-1.331-2,10.7,10.7,0,0,0-2.832-3.447c-1.907-1.349-4.291-1.829-6.6-2.292-1.022-.205-2.078-.418-3.06-.7a23.651,23.651,0,0,1-10.669-6.356l-10.473-23.635a.906.906,0,0,1,.23-.693,1.02,1.02,0,0,1,.744-.295,1.154,1.154,0,0,1,.947.466A71.471,71.471,0,0,1,433.129,181a60.012,60.012,0,0,0,5.479,9.01,20.435,20.435,0,0,0,8.323,6.508,35.075,35.075,0,0,0,6.037,1.7c3.2.7,6.509,1.416,9.281,3.615a11.2,11.2,0,0,1,3.5,4.424,5.675,5.675,0,0,1-.446,5.346A2.742,2.742,0,0,1,463.071,212.8Zm17.652-17.993a2.669,2.669,0,0,1-1.919-.776c-2.738-2.9-3.324-7.221-1.74-12.853a56.685,56.685,0,0,1,5.831-12.694c4.422-7.514,10.461-12.724,16.854-18.241,1.211-1.045,2.463-2.125,3.712-3.23,8.426-7.453,13.826-17.657,18.591-26.66,1.4-2.637,2.794-5.347,4.146-7.968l.028-.054.014-.027c1.656-3.21,3.369-6.53,5.1-9.768-2.82-2.492-4.022-7.144-4.989-10.881-.171-.664-.333-1.29-.5-1.89l-.1-.362A144.849,144.849,0,0,1,521.5,69.639a108.352,108.352,0,0,1-1.031-19.164l.068-1.641,3.151-11.768a1.25,1.25,0,0,1,.568-.145,1.237,1.237,0,0,1,.989.553,1.278,1.278,0,0,1-.19,1.962,47.341,47.341,0,0,1,2.1,7.078c.586,2.587,1.222,5.23,1.944,8.077.683,2.694,1.335,5.444,1.966,8.1l.008.034.005.023c.633,2.67,1.287,5.43,1.974,8.135,1.383,5.446,3.108,11.175,5.128,17.028.115.335.248.7.406,1.109l.22.567.054-.086a.584.584,0,0,1,.495-.3.626.626,0,0,1,.464.222.673.673,0,0,1,.155.547c-.055.363-.122.731-.187,1.087l0,.011,0,.025c-.04.219-.081.446-.119.669l.2.535c1.27,3.418,2.126,6.993-.19,9.99a4.718,4.718,0,0,1-3.013,1.986,172.527,172.527,0,0,1-6.865,18.391l-.751,1.731c-3.616,8.3-7.659,17.024-13.794,24.551a90.386,90.386,0,0,1-9.379,9.44c-4.252,3.876-8.649,7.885-11.9,12.9a53.917,53.917,0,0,0-6,13.035l-.564,1.757c-1.078,3.315-2.3,6.45-5.364,8.366A2.482,2.482,0,0,1,480.723,194.807Zm51.81-8.935a5.583,5.583,0,0,1-3.581-1.231l-6.865-5.7c-1.154-.959-2.306-1.923-3.424-2.863-1.043-.878-1.992-1.69-2.9-2.485l-1.432-1.264c-.164-.147-.466-.457-.847-.85-1.115-1.147-2.8-2.881-3.408-2.978a1.164,1.164,0,0,0-.18-.014c-1.826,0-5.482,3.812-7.446,5.86l-.006.006c-.263.274-.49.51-.676.7l-.205.2a83.877,83.877,0,0,0-8.334,9.577.651.651,0,0,1-.522.279.612.612,0,0,1-.513-.279.623.623,0,0,1-.017-.615,85.559,85.559,0,0,1,8.113-13.982l.639-.874c.357-.48.734-1.023,1.133-1.6l.017-.025c1.967-2.833,4.414-6.358,7.488-7.051a6.082,6.082,0,0,1,1.336-.147c3.372,0,6.714,2.716,9.4,4.9.57.464,1.109.9,1.622,1.294l.209.158c1.709,1.283,3.392,2.588,4.667,3.581a60.763,60.763,0,0,1,.95-12.723,35.852,35.852,0,0,1,4.383-11.837,52.506,52.506,0,0,1,7.955-9.5c1.27-1.294,2.583-2.631,3.813-4.007a53.585,53.585,0,0,0,6.077-8.956,65.757,65.757,0,0,1,4.708-7.308A3.042,3.042,0,0,1,556.688,115c.12-3.241.522-6.54.911-9.73l.006-.047c.109-.89.221-1.811.324-2.711l.138-1.232c.069-.645.15-1.294.235-1.982.5-4.013,1.062-8.561-.815-12.151-1.653-3.162-5.076-5.624-8.1-7.8l0,0c-.786-.566-1.529-1.1-2.235-1.639l-2.871-2.228-8.292-7.923a1.047,1.047,0,0,1-.1-1.138,1.571,1.571,0,0,1,1.334-.815,1.22,1.22,0,0,1,.249.025c5.2,1.075,10.225,3.874,15.084,6.582.762.424,1.625.906,2.45,1.355l.584.317c4.159,2.242,8.725,5.161,11.059,9.819,2.431,4.848,2.31,10.387,1.949,16.11l-.032.506c-.089,1.386-.164,2.811-.236,4.188v.029a97.688,97.688,0,0,1-1.619,15.368,4.532,4.532,0,0,1-1.692,2.785,4.622,4.622,0,0,1-2.793.877,5.782,5.782,0,0,1-1.69-.256c-2.219,7-7.416,12.662-12.443,18.133-1.742,1.9-3.544,3.858-5.152,5.811-3.309,4.018-5.25,8.994-5.932,15.214-.6,5.482-.178,11.18.231,16.69q.075,1,.146,1.992a4.148,4.148,0,0,1-1.054,3.213A5.158,5.158,0,0,1,532.533,185.872Z" transform="translate(19 -5)"></path></g><g transform="translate(225 0)"><g><g><path id="_Skin" data-name="âœ‹ Skin" d="M233.915,442.212h0c-45.481,0-90.291-14.688-126.177-41.356a11.022,11.022,0,0,1-4.1-5.45,9.227,9.227,0,0,1,.064-5.782,81.168,81.168,0,0,1-9.784-10.01,85.394,85.394,0,0,1-8.084-11.693A83.213,83.213,0,0,1,79.808,355a76.079,76.079,0,0,1-3.611-13.7,4.18,4.18,0,0,0-2.465-2.622,17.133,17.133,0,0,0-3.866-1.033c-.588-.11-1.144-.214-1.682-.34-9.109-1.611-19.563-3.887-28.025-8.564a34.721,34.721,0,0,1-10.752-8.891,28.27,28.27,0,0,1-3.648-6.16,31.4,31.4,0,0,1-2.148-7.516,56.411,56.411,0,0,1,.035-12.73,53.928,53.928,0,0,1,2.475-10.908c2.279-6.793,5.672-12.83,8.953-18.667,2.13-3.789,4.331-7.705,6.167-11.738a56.365,56.365,0,0,0,4.23-12.89,49.046,49.046,0,0,0,.437-15.338A75.052,75.052,0,0,0,40.7,204.813c-3.267-12.425-9.742-26.887-16.6-42.2-4.508-10.07-9.17-20.482-13.181-30.9a179.217,179.217,0,0,1-9.26-30.907A92.331,92.331,0,0,1,.02,86.012a62.631,62.631,0,0,1,1.168-14A47.644,47.644,0,0,1,14.379,47.436a41.074,41.074,0,0,1,12.037-8.3,34.247,34.247,0,0,1,14.026-3.1,30.239,30.239,0,0,1,6.216.642A379.65,379.65,0,0,1,209.3,0a366.142,366.142,0,0,1,85.4,10.021l1.137.272a161.65,161.65,0,0,1,17.427,4.862,51.155,51.155,0,0,1,15.717,8.635,17.964,17.964,0,0,1,5.622,7.4,13.239,13.239,0,0,1,.446,7.512c-1.059,5.06-4.431,10.191-8,15.622-2.9,4.406-5.891,8.962-7.752,13.695a25.746,25.746,0,0,0-1.793,7.242,19.2,19.2,0,0,0,.814,7.551c1.741,2.434,4.834,7.373,8.273,13.211,2.853,4.843,7.287,12.58,12.214,21.939,7.346,13.953,16.783,33.419,20.027,46.919,3.253,13.543,5.381,20.7,6.152,20.7.117,0,.18-.163.217-.285.016-.051.028-.1.039-.146.02-.081.035-.139.051-.139a13.974,13.974,0,0,1,.3,2.218c.3,2.622.918,8.077,2.319,19.133,1.7,13.429,3.792,31.181,4.859,49.406a345.364,345.364,0,0,1-.311,49.73,234.645,234.645,0,0,1-3.312,24.275,189.3,189.3,0,0,1-6.067,23.5,161.562,161.562,0,0,1-9.308,22.448,148.989,148.989,0,0,1-13.037,21.107,113.406,113.406,0,0,1-9.814,10.23,127.24,127.24,0,0,1-18.874,14.363,133.114,133.114,0,0,1-28.427,13.336,146.733,146.733,0,0,1-38.475,7.152C241.425,442.111,237.648,442.212,233.915,442.212ZM10.087,85.581a77.61,77.61,0,0,0,1.727,12.8,66.665,66.665,0,0,1,3.362-9.257A8.927,8.927,0,0,1,10.087,85.581ZM41.043,39.365a31.372,31.372,0,0,0-10.31,3.928,39.425,39.425,0,0,0-8.76,7.108A139.387,139.387,0,0,1,41.043,39.365Z" transform="translate(46 52)" fill="#d08b5b"></path><path id="_Ink" data-name="ðŸ– Ink" d="M285.294,507.331a129.534,129.534,0,0,1-40.967-6.663,126.417,126.417,0,0,1-19.13-8.193,121.2,121.2,0,0,1-17.516-11.313,7.03,7.03,0,0,1-2.324-8.256,10.834,10.834,0,0,1,3.4-4.819,8.643,8.643,0,0,1,5.358-2.052A7.175,7.175,0,0,1,218.3,467.4a125.925,125.925,0,0,0,33.247,16.668,116.767,116.767,0,0,0,36.261,5.86,107.045,107.045,0,0,0,41.123-8.1,105.372,105.372,0,0,0,20.761-11.53,114.145,114.145,0,0,0,17.884-15.818,116.492,116.492,0,0,0,14.269-19.168,110.912,110.912,0,0,0,9.916-21.583c5.777-17.322,7.854-35.867,9.862-53.8.189-1.687.4-3.6.616-5.465l.152-1.324c1.229-10.644,2.169-21.16,2.793-31.257.658-10.659.987-21.21.977-31.362-.008-10.109-.386-19.27-1.157-28.008a231.507,231.507,0,0,0-3.8-26.381,207.134,207.134,0,0,0-6.995-25.7,228.231,228.231,0,0,0-10.752-25.977,186.609,186.609,0,0,0-30.93-45.42,14.328,14.328,0,0,1-2.886.27,38.815,38.815,0,0,1-5.715-.578h-.006c-.993-.15-2.02-.3-3.013-.412-2.186-.235-4.1-.428-5.85-.59,1.905,1.232,3.824,2.54,5.866,4l2.518,1.816q.59.423,1.194.851l.061.044c3.91,2.781,7.951,5.656,10.886,9.206,3.355,4.06,4.571,8.274,3.715,12.885a7.785,7.785,0,0,1-2.308,4.02,8.966,8.966,0,0,1-4.032,2.31,13.739,13.739,0,0,1-3.175.381,16.159,16.159,0,0,1-9.134-3.17,60.612,60.612,0,0,1-7.823-6.767c-1.474-1.428-2.866-2.777-4.279-3.982-6.117-5.221-12.426-9.824-18.889-14.47-1.7-1.217-3.116-2.215-4.441-3.14,1.344,1.565,2.719,3.236,4.09,4.963l1.964,2.489q.5.631,1.03,1.282c2.912,3.616,6.213,7.714,8.154,12.035,2.241,4.989,2.251,9.379.032,13.421a8.6,8.6,0,0,1-3.234,3.239,8.825,8.825,0,0,1-4.417,1.232h-.148c-3.809-.079-7.135-1.688-10.169-4.92-2.669-2.843-4.75-6.507-6.763-10.049-1.012-1.78-1.967-3.462-2.968-4.991-4.521-6.887-9.513-13.414-13.8-18.89-1.527-1.94-2.808-3.551-4.03-5.07a419.61,419.61,0,0,0-66.62,8.85c-13.291,2.868-27.454,6.7-44.57,12.07l-1.222.389c-7.508,2.417-15.979,5.669-21.888,11.462-.85,4.018-.139,8.211.593,11.826l.61,2.961a174.942,174.942,0,0,1,2.9,18.5,95.611,95.611,0,0,1,.049,18.746c-1.386,13.656-5.673,25.892-10.1,37.08a15.885,15.885,0,0,1-2.861,4.761,10,10,0,0,0-2.589,6.1,64.646,64.646,0,0,0,.187,14.268l.355,4.01a79.357,79.357,0,0,1,.14,16.005,28.252,28.252,0,0,1-5.692,14.627,2.139,2.139,0,0,1-1.713.771,2.85,2.85,0,0,1-2.407-1.3,17.17,17.17,0,0,0-.97-1.53,19.339,19.339,0,0,0-6.178-5.711,24.5,24.5,0,0,0-8.052-2.9.479.479,0,0,1-.439-.5.737.737,0,0,1,.609-.7,20.317,20.317,0,0,1,13.54,3.19c-.759-2.626-3.66-3.959-8.622-3.959a54.417,54.417,0,0,0-12.573,1.885l-.165.044a49.055,49.055,0,0,0-16.57,7.879,39.034,39.034,0,0,0-6.68,6.276,37.939,37.939,0,0,0-4.924,7.523,37.491,37.491,0,0,0-3.886,17.571A35.56,35.56,0,0,0,69.986,363.7a32.976,32.976,0,0,0,5.419,6.954,32.391,32.391,0,0,0,7.257,5.337,35.306,35.306,0,0,0,16.723,4.122l.377,0a40.42,40.42,0,0,0,8.29-1.22,39.079,39.079,0,0,1,8.374-1.207c.406,0,.812.012,1.207.036a5.459,5.459,0,0,1,4.438,2.873,4.509,4.509,0,0,1-.188,4.538,16.948,16.948,0,0,1-5.26,5.35,175.811,175.811,0,0,0,19,33.13,109.468,109.468,0,0,0,13.96,15.79,46.824,46.824,0,0,0,3.669,2.945,41.326,41.326,0,0,1,5.97,5.117c1.914,2.153,2.765,4.22,2.6,6.318a4.888,4.888,0,0,1-3.4,4.479,6.364,6.364,0,0,1-2.421.469c-5.233,0-10.98-5.959-14.783-9.9-.428-.444-.871-.9-1.272-1.31l-.344-.346a119.426,119.426,0,0,1-14.45-17.44A86,86,0,0,1,116,412.152a90.535,90.535,0,0,1-4.963-19.109,33.933,33.933,0,0,1-9.738,1.3A54.143,54.143,0,0,1,89.215,392.9a56.451,56.451,0,0,1-10.434-3.453,43.351,43.351,0,0,1-8.806-5.32,44.757,44.757,0,0,1-7.16-7.028,47.72,47.72,0,0,1-5.44-8.353,50.576,50.576,0,0,1-3.646-9.3A51.742,51.742,0,0,1,52.26,338.4a48.446,48.446,0,0,1,2.616-10.337,45.65,45.65,0,0,1,16.365-21.254,10.819,10.819,0,0,1-2.689-2.07c-4.021-4.272-6.971-9.685-9.823-14.92-.347-.637-.659-1.209-.97-1.776l-.378-.685c-2.792-5.042-5.447-10.208-7.892-15.357l-.917-1.953c-2.1-4.515-4.078-8.021-5.99-11.412a86.873,86.873,0,0,1-8.28-18.078,251.352,251.352,0,0,1-8.69-36.73l-.512-3.3c-1.128-7.3-2.162-15.044-1.357-22.3-5.05,1.647-7.781,1.858-9.6,1.858a15.855,15.855,0,0,1-7.2-1.648,8.833,8.833,0,0,1-4.056-4.7,9.241,9.241,0,0,1-.374-6.183,15.137,15.137,0,0,1,4.36-6.7,15.716,15.716,0,0,1-3.18-2.14L2.862,158a8.739,8.739,0,0,1-2.805-5.788A11.024,11.024,0,0,1,1.3,145.872c.183-.318.381-.675.59-1.059a11.469,11.469,0,0,1,9.758-5.682H11.8c.319.005.643.008.961.008s.644,0,.969-.008a17.142,17.142,0,0,1-5.379-2.1,10.729,10.729,0,0,1-4.3-5.077,11.882,11.882,0,0,1-.752-6.406,10.725,10.725,0,0,1,2.381-5.3,9.948,9.948,0,0,1,5.281-3.2,20.748,20.748,0,0,1,4.848-.542,33.955,33.955,0,0,1,7.782,1l-.087-.048c-.129-.074-.262-.15-.392-.232A12.941,12.941,0,0,1,18.906,113a9.654,9.654,0,0,1-1.514-5.743,14.028,14.028,0,0,1,1.51-5.785,10.962,10.962,0,0,1,4.21-4.2A11.908,11.908,0,0,1,29.088,95.7a10.383,10.383,0,0,1,5.684,1.587,98.208,98.208,0,0,1,8.62,6.35c-3.372-4.145-5.339-7.679-6.19-11.12a11.721,11.721,0,0,1,5.251-12.9,10.567,10.567,0,0,1,5.392-1.5,12.077,12.077,0,0,1,5.228,1.256,11.293,11.293,0,0,1,2.17-7.57,14.721,14.721,0,0,1,4.5-4.055,11.428,11.428,0,0,1,5.639-1.581,9.929,9.929,0,0,1,5.351,1.576,15.993,15.993,0,0,1,2.66,2.22,14.915,14.915,0,0,1-.71-4.413,11.757,11.757,0,0,1,.715-4.164,10.727,10.727,0,0,1,6.125-6.154,11.181,11.181,0,0,1,4.321-.831,12.7,12.7,0,0,1,8.079,2.831,10.927,10.927,0,0,1,2.484-9.087,13.331,13.331,0,0,1,4.383-3.423,12.254,12.254,0,0,1,5.321-1.271,10.308,10.308,0,0,1,9.2,5.732c1.708,3.072,3.112,5.82,4.292,8.4l.488,1.087.05-.02-.337-.795-.344-.795c-.35-.814-.727-1.652-1.091-2.462l-.008-.017c-1.565-3.481-3.184-7.081-3.7-10.8a16.051,16.051,0,0,1,.158-5.55,11.74,11.74,0,0,1,2.1-4.7,10.646,10.646,0,0,1,7.266-4.037,10.227,10.227,0,0,1,1.37-.091,12.5,12.5,0,0,1,9.29,4.353,12.477,12.477,0,0,1,.442-5.374,11.968,11.968,0,0,1,2.443-4.36,11.116,11.116,0,0,1,8.3-3.886,11.342,11.342,0,0,1,7.751,3.249c3.17,2.942,5.186,6.972,7.135,10.869.52,1.04,1.059,2.116,1.605,3.141.661,1.235,1.34,2.489,2,3.7l.012.022c.779,1.439,1.584,2.927,2.372,4.406.364-.433.765-.873,1.19-1.309a180.147,180.147,0,0,1-5.23-19.68,13.058,13.058,0,0,1,1.2-8.948,11.284,11.284,0,0,1,7.05-5.58,10.973,10.973,0,0,1,2.92-.386,12.782,12.782,0,0,1,7.328,2.352,10.4,10.4,0,0,1,4.281,6.284c.861,4.111,1.911,8.39,3.21,13.08a21.182,21.182,0,0,1,2.43-.44c.069-.84.145-1.662.227-2.444l.315-2.893.064-.61c.677-6.43,1.445-13.717,4.794-19.163a11.06,11.06,0,0,1,9.6-5.4,12.023,12.023,0,0,1,7.9,2.961,10.711,10.711,0,0,1,2.617,3.5,11.366,11.366,0,0,1,1.037,4.671,43.172,43.172,0,0,1-1.71,10.789c-.542,2.2-1.1,4.477-1.42,6.711-.332,2.336-.558,4.839-.689,7.65a227.752,227.752,0,0,1,6.379-25.15c.2-.669.419-1.35.627-2.008l0-.005.023-.071q.14-.443.279-.885a12.408,12.408,0,0,1,4.351-6.228A11.682,11.682,0,0,1,230.728,0a12.956,12.956,0,0,1,1.534.092,12.52,12.52,0,0,1,7.323,3.866,9.713,9.713,0,0,1,2.906,7.714c-.114,1.055-.272,2.108-.47,3.13l.025.009h.025l-.131.38a19.528,19.528,0,0,1-1.73,5.02c-1.116,3.249-2.173,6.484-2.97,8.94.3-.013.592-.019.866-.019a18.7,18.7,0,0,1,3.414.309c.655-1.677,1.323-3.379,1.969-5.028l.029-.075c.824-2.1,1.675-4.27,2.512-6.417.388-.991.741-2.029,1.115-3.128,1.175-3.456,2.391-7.029,4.8-9.443a13.439,13.439,0,0,1,9.478-3.718,13.093,13.093,0,0,1,6.612,1.718,12.223,12.223,0,0,1,5.377,6.126,14.634,14.634,0,0,1,.592,8.2,9.223,9.223,0,0,1-5.025,6.343l-.265.137-1.89,4.48a15.567,15.567,0,0,1,1.83-.67,15.022,15.022,0,0,1,3-.57c2.406-4.356,5.183-8.9,8.74-14.3a13.338,13.338,0,0,1,4.572-4.285,11.982,11.982,0,0,1,5.847-1.563,11.352,11.352,0,0,1,5.8,1.6,12.736,12.736,0,0,1,5.68,8.162,10.077,10.077,0,0,1-1.431,8.058c-2.435,3.428-4.939,7.163-8.12,12.11a11.655,11.655,0,0,1,1.329.31c.205-.276.418-.549.63-.81a60.211,60.211,0,0,1,8.193-7.949c.472-.4.959-.819,1.448-1.241a23.047,23.047,0,0,0,3.285-3.822c1.514-2.048,3.081-4.165,5.625-5.438a12.555,12.555,0,0,1,5.569-1.34,11,11,0,0,1,5.246,1.307,10.589,10.589,0,0,1,4.055,3.933,12.5,12.5,0,0,1,.193,13.488c-2.24,3.984-6.177,7.557-9.652,10.709l-.011.01c-.845.767-1.644,1.492-2.411,2.213a179.385,179.385,0,0,1,19.679-10.68c4.615-2.125,8.187-3.636,11.58-4.9a17.184,17.184,0,0,1,6.015-1.2,12.357,12.357,0,0,1,4.724.923,16.892,16.892,0,0,1,4.542,2.829,7.723,7.723,0,0,1,2.271,3.868A7.607,7.607,0,0,1,365,43.872a16.063,16.063,0,0,1-3.82,6.1,14.471,14.471,0,0,1-6.339,3.421c-1.725.475-3.5.886-5.216,1.283-1.967.455-4,.926-5.975,1.5a123.151,123.151,0,0,0-18.059,6.66,9.335,9.335,0,0,1,1.19.86c4.254-1.375,8.716-2.61,13.26-3.67a171.345,171.345,0,0,1,22.488-3.639l2.512-.234q.714-.069,1.442-.142l.031,0c2.809-.279,5.713-.567,8.571-.567a23.98,23.98,0,0,1,8.686,1.36,13.678,13.678,0,0,1,6.8,5.555,10.176,10.176,0,0,1,1.447,5.217,8.757,8.757,0,0,1-1.447,5.194,14.6,14.6,0,0,1-6.128,5.312,20.838,20.838,0,0,1-8.033,1.308c6.192.656,12.555,1.488,18.91,2.47,4.269.651,8.632,1.4,12.967,2.238l2.153.422c.893.178,1.823.348,2.722.511h.008c4.5.819,9.15,1.665,12.891,4.187a12.152,12.152,0,0,1,4.672,5.553,10.325,10.325,0,0,1,.44,6.248,11.569,11.569,0,0,1-3.652,5.995,13.217,13.217,0,0,1-7.14,3.154,16.208,16.208,0,0,1-2,.12,41.668,41.668,0,0,1-9.964-1.705c-1.5-.382-2.923-.743-4.322-1.025-4.928-.992-10.015-1.894-15.12-2.68-2.447-.383-5.022-.743-7.871-1.1a109.649,109.649,0,0,1,15.83,3.4l1.436.434a75.448,75.448,0,0,1,15.88,6.426A28.994,28.994,0,0,1,420.9,119.2a17.454,17.454,0,0,1,4.067,6.98,9.212,9.212,0,0,1-1.314,8.026,10.91,10.91,0,0,1-8.226,4.5c-.27.016-.546.025-.818.025-4.426,0-8.336-2.164-12.118-4.256-.876-.485-1.782-.986-2.675-1.448a65.739,65.739,0,0,0-11.139-4.441c-3.9-1.2-8.016-2.233-12.22-3.08A96.2,96.2,0,0,1,386.59,131.9l1.5,1.106c4.1,3.051,9.7,7.23,13.785,12.141a25.176,25.176,0,0,1,4.576,7.723,14.924,14.924,0,0,1,.435,8.646,9.788,9.788,0,0,1-3.227,4.9A8.653,8.653,0,0,1,398.2,168.6c-.2,0-.408-.01-.607-.029a18.211,18.211,0,0,1-9.345-3.895,62.823,62.823,0,0,1-7.7-7.338,62.453,62.453,0,0,0-7.45-7.127c-1.978-1.5-4.259-3.064-6.78-4.66a177.092,177.092,0,0,1,16.371,23.2,211.637,211.637,0,0,1,12.779,25.309A253.55,253.55,0,0,1,412.1,250.071c1.6,9.121,2.746,18.415,3.506,28.411.706,9.283,1.065,19.013,1.1,29.743l0,1.266c.024,27.775-.805,48.744-2.69,67.991a231.583,231.583,0,0,1-4.831,30.745A132.127,132.127,0,0,1,398.821,437.5a119.873,119.873,0,0,1-14.448,22.2,131.022,131.022,0,0,1-18.952,18.811,133.693,133.693,0,0,1-22.349,14.655,126.167,126.167,0,0,1-24.641,9.726A124.645,124.645,0,0,1,285.294,507.331Zm-179.729-357.2h0a2.755,2.755,0,0,0-2,.91c-2.8,2.9-4.678,6.437-6.517,10.11a2.932,2.932,0,0,0,.1,2.945,3.406,3.406,0,0,0,2.772,1.607,2.523,2.523,0,0,0,2.306-1.523l.787-1.571a31.308,31.308,0,0,1,4.39-6.895l.4-.431a2.791,2.791,0,0,0,.617-3.141,3.254,3.254,0,0,0-2.862-2.011Zm-36.388-5.958a3.465,3.465,0,0,0-.574.049c-2.462.415-4.952.864-7.359,1.3s-4.882.881-7.329,1.294a2.428,2.428,0,0,0-2.158,2.748,3.3,3.3,0,0,0,3.182,3.087,3.456,3.456,0,0,0,.573-.049c2.451-.413,4.934-.862,7.336-1.3s4.9-.884,7.351-1.3a2.428,2.428,0,0,0,2.158-2.747A3.3,3.3,0,0,0,69.177,144.176ZM295.583,110.36a2.8,2.8,0,0,0-2.639,2.512,3.257,3.257,0,0,0,.3,2.024,2.939,2.939,0,0,0,1.724,1.419,120,120,0,0,1,14.836,5.746,3.138,3.138,0,0,0,1.383.334,3.325,3.325,0,0,0,3.1-2.584,2.5,2.5,0,0,0-1.459-2.931,133.015,133.015,0,0,0-16.267-6.35A3.112,3.112,0,0,0,295.583,110.36Zm-227.34-7.833A2.616,2.616,0,0,0,65.8,104.84a3.216,3.216,0,0,0,1.938,3.7l12.96,5.183a2.95,2.95,0,0,0,1.092.226,2.616,2.616,0,0,0,2.442-2.311,3.216,3.216,0,0,0-1.938-3.7l-12.96-5.184A2.948,2.948,0,0,0,68.243,102.527ZM339.8,87.873h0a3,3,0,0,0-2.73,2.277,3.08,3.08,0,0,0,0,1.821,2.927,2.927,0,0,0,1.248,1.577c.752.487,1.583.92,2.386,1.338a19.268,19.268,0,0,1,3.556,2.189l.363.323a2.89,2.89,0,0,0,2,.84,3.342,3.342,0,0,0,2.969-2.079,2.64,2.64,0,0,0-.725-3,23,23,0,0,0-4.838-3.228c-.731-.4-1.486-.818-2.208-1.262l-.473-.3a2.83,2.83,0,0,0-1.547-.493Zm-222.292,271.8a5.046,5.046,0,0,1-4.027-2.532c-4.567-9.117-12.79-15.971-24.44-20.37a.281.281,0,0,1-.165-.28.182.182,0,0,1,.165-.17,29.146,29.146,0,0,1,4.442-.343,29.845,29.845,0,0,1,8.363,1.214,34.4,34.4,0,0,1,7.718,3.359,44.33,44.33,0,0,1,12.686,11.459c1.39,1.837.559,4.475-.8,6.15-.913,1.149-2.119,1.3-3.516,1.481l-.074.01A2.746,2.746,0,0,1,117.508,359.675Z" transform="translate(6 0.999)"></path></g></g><g transform="translate(159 186)"><g><path d="M175.373 49.5872C175.699 49.4437 175.991 49.2049 176.203 48.8583C178.978 44.3099 179.267 38.8813 178.039 33.5637C176.563 27.172 172.899 20.9588 168.944 16.7559C163.959 11.4582 157.895 7.75374 151.246 4.94731C150.762 4.74287 150.267 4.53098 149.763 4.31514C142.964 1.40541 134.597 -2.01031 127.865 1.47064C125.161 2.86951 123.673 5.20381 123.256 7.7496C122.814 10.4534 123.597 13.4099 125.462 15.7216C128.557 19.5594 133.339 20.3533 138.087 21.0465C139.602 21.2677 141.106 21.486 142.53 21.8229C147.429 22.9821 152.604 24.4361 157.104 26.7244C166.253 31.3762 170.54 38.5898 172.747 48.2853C172.837 48.6781 173.037 48.9988 173.3 49.2406C173.575 49.4928 173.921 49.6579 174.285 49.7192C174.651 49.7808 175.032 49.7375 175.373 49.5872ZM58.3942 19.1934C55.0693 22.4329 51.1339 22.9347 47.1526 23.381C44.9405 23.6313 43.1746 23.8331 41.4369 24.2252C36.6605 25.3034 31.9393 26.9272 27.6319 29.2659C23.1292 31.7106 18.2224 34.659 14.6922 38.4361C13.8528 39.3349 13.0615 40.278 12.2691 41.2232C11.5465 42.0851 10.8505 42.9149 10.1169 43.7149C9.27449 44.6339 8.47449 45.597 7.67875 46.5576C7.1867 47.3681 7.0895 47.5675 6.99041 47.775C6.8413 48.0869 6.66786 48.4359 6.46976 48.8103C6.19845 49.323 5.88066 49.8843 5.54784 50.3932C4.9941 51.3234 4.69697 51.5796 4.44022 51.6942C4.01419 51.8839 3.61015 51.9774 3.21817 51.9268C2.85064 51.8793 2.50438 51.7028 2.16244 51.4138C0.455387 49.9715 -0.0480658 47.6046 0.00353523 45.092C0.0818393 41.2793 1.48813 37.0578 2.78452 34.4628C5.79888 28.4331 9.97938 22.1649 15.0062 17.6646C20.7422 12.5276 27.0177 8.63869 34.2256 5.95894C38.705 4.29304 43.8913 2.76391 48.7713 2.95706C52.284 3.09609 55.6373 4.14026 58.4066 6.74782C60.1072 8.34853 60.9235 10.6254 60.9235 12.9006C60.9235 15.2211 60.0757 17.5554 58.3942 19.1934ZM164.634 78.3299C166.478 78.8824 167.779 78.6212 169.441 77.7551C170.719 77.0896 171.589 76.0387 172.088 74.8117C172.599 73.5559 172.706 72.1077 172.454 70.7659C171.405 65.1948 168.042 60.2513 163.503 57.0672C159.091 53.9728 153.589 52.5435 148.048 53.7341C144.003 54.6036 138.007 58.4424 134.85 63.1243C133.504 65.1203 132.671 67.2595 132.581 69.3723C132.495 71.387 133.008 73.4183 135.676 76.096C135.935 76.177 136.208 76.2208 136.477 76.2208C137.138 76.2208 137.821 75.9439 138.274 75.5441C139.469 74.4935 140.311 73.1636 141.178 71.7329C141.641 70.9679 142.102 70.1976 142.69 69.5195C144.449 67.4927 147.002 65.7736 149.683 65.3262C152.167 64.911 154.406 65.6469 156.181 67.0355C158.256 68.6601 159.713 71.1522 160.252 73.8146C160.472 74.8933 161.036 75.8657 161.818 76.6477C162.607 77.4367 163.615 78.0237 164.634 78.3299ZM46.1749 69.1109C43.7479 67.5587 40.8928 67.0259 37.7287 68.4655C35.256 69.5899 30.9192 73.3385 27.9011 78.2662C25.8363 81.6374 24.3721 85.5922 24.6769 89.7117C24.7477 90.6684 24.3942 91.3738 23.8366 91.8954C23.3962 92.3073 22.7601 92.61 22.013 92.7047C21.3786 92.785 20.6686 92.7125 20.0913 92.5324C18.9931 92.1896 18.4119 91.4772 18.1929 90.8957C16.0797 85.2836 16.9901 79.0208 19.3585 73.3707C22.5547 65.7456 28.3592 59.3585 32.1622 57.2993C38.6698 53.7742 46.347 53.612 52.8639 57.2031C58.4114 60.2596 61.8802 65.1942 65.3301 70.2242C66.0635 71.2934 66.7914 72.3548 67.5436 73.3976C69.0513 75.487 69.2013 77.5593 68.6175 79.3363C67.9707 81.3049 66.3215 82.9663 64.2592 83.8357C62.353 84.6393 60.1407 84.7524 58.1831 83.9268C56.5293 83.2293 55.0117 81.8695 54.0513 79.5625C52.434 75.6771 49.7393 71.3904 46.1749 69.1109ZM127.748 115.98C135.872 104.601 124.366 93.898 116.814 89.3079C114.836 87.8879 116.406 83.1842 120.634 83.9112C159.031 90.5082 139.136 156.649 90.112 120.354C84.2754 115.645 91.3434 105.275 97.6342 109.307C97.9532 109.552 98.2876 109.81 98.6364 110.08C105.704 115.544 118.636 125.542 127.748 115.98ZM117.042 185.1C109.675 187.233 101.768 187.424 94.2589 185.221C87.4481 183.222 80.4549 178.823 75.4423 173.003C70.9894 167.832 68.1055 161.549 68.2187 154.842C68.2316 154.076 68.5055 153.436 68.9268 152.94C69.3804 152.406 70.014 152.039 70.6926 151.88C71.3906 151.716 72.1285 151.774 72.7568 152.059C73.3256 152.318 73.8129 152.757 74.1176 153.398C74.8879 154.41 75.6553 155.407 76.4257 156.376C82.6196 164.024 88.618 169.74 97.9319 171.79C102.985 172.903 108.032 172.409 112.663 170.712C117.62 168.895 122.102 165.7 125.613 161.612C127.2 159.765 129.074 159.011 130.905 158.998C132.982 158.983 135.034 159.948 136.579 161.49C138.099 163.006 139.116 165.065 139.209 167.219C139.29 169.11 138.673 171.085 137.032 172.848C131.626 178.652 124.621 182.904 117.042 185.1Z" transform="translate(54.00004 55.05923)" fill-rule="evenodd" stroke="none"></path></g></g><g transform="translate(123 338)"><g><path d="M302.883 83.4527C303.036 83.7837 303.163 84.1477 303.254 84.5507C314.029 134.978 316.76 193.085 294.606 240.715C230.608 298.341 92.0503 276.209 36.5633 213.492C-6.02371 185.505 -1.73271 121.227 2.67129 75.3917C5.26029 52.4177 4.91229 27.2277 15.3663 6.25674C14.5553 1.07074 22.0143 -2.79426 24.4043 2.61074C35.7143 28.1507 47.4443 54.4707 65.5853 76.0097C82.5873 99.6767 134.37 131.387 144.554 85.8787C157.467 57.3877 206.941 52.2147 234.314 56.7307C251.322 61.0884 256.229 71.7796 260.604 81.3112C265.338 91.6252 269.449 100.582 287.593 98.6867C288.007 98.8067 288.438 98.8507 288.854 98.8187C290.96 95.9897 292.362 91.9387 293.916 88.6647C293.777 87.9337 293.557 87.1867 293.491 86.4497C295.505 83.4837 298.764 81.8957 302.883 83.4527ZM227.846 126.239C229.605 128.053 231.318 129.817 232.994 131.311C240.134 136.101 245.424 126.911 245.114 120.661C244.634 111.361 236.694 93.5407 225.914 89.1137C203.848 84.2127 165.114 92.5337 174.484 122.871C176.774 128.331 183.434 135.441 190.154 133.261C195.214 131.621 196.554 123.261 199.863 119.532C210.834 108.709 219.828 117.977 227.846 126.239Z" transform="translate(-4.999991 -27.00004)" fill-rule="evenodd" stroke="none"></path></g></g><g transform="translate(47 241)"><g><path d="M355.09 63.4319C352.262 71.1279 347.958 79.1399 342.695 85.6169C321.401 103.649 300.71 93.6649 290.204 69.2259C286.212 51.9549 296.811 33.3509 308.042 20.6459C324.262 4.38889 350.733 12.9209 358.191 32.2469C358.644 34.7509 358.918 37.2489 359.049 39.7389C358.894 47.8299 357.919 54.7449 355.09 62.4319M150.41 47.9109C178.462 14.5439 230.942 12.7599 229.603 64.1149C223.577 129.119 122.106 113.164 150.41 47.9109ZM363.913 20.0759C362.93 18.4109 361.839 16.7999 360.648 15.2589C360.208 14.9969 359.955 12.6729 358.337 12.5009C336.71 -11.3581 298.717 2.17889 284.989 25.9529C282.482 28.9589 280.437 32.4779 278.929 36.1959C265.403 33.7149 249.634 34.1969 237.054 39.3059C224.58 6.73389 186.815 3.82589 161.928 17.7429C146.449 25.3559 136.412 41.2989 121.358 50.0569C85.9688 52.6039 47.9878 44.6749 13.2378 53.5519C-14.1682 59.2499 8.74178 73.1269 13.3378 63.8659C46.1008 54.1859 84.9158 62.3659 118.933 60.1849C122.47 66.1679 129.253 71.0639 136.013 70.8549C143.314 135.576 237.698 124.844 240.954 67.3109C244.647 61.4719 249.24 55.8839 255.814 52.2459C258.331 51.7249 260.762 51.0479 262.984 49.9999C266.782 49.4639 272.634 51.0739 276.128 54.2359C288.097 126.052 357.052 117.688 369.375 54.7739C369.62 54.5239 370.305 53.5859 370.831 52.0809C375.049 46.5039 385.375 44.4309 383.725 35.0159C382.256 25.5989 370.364 25.7109 363.913 20.0759Z" transform="translate(11.99972 10.99992)" stroke="none"></path></g></g></g></g></svg>